<svg width="123" height="85" xmlns="http://www.w3.org/2000/svg">

 <g>
  <title>Layer 1</title>
  <g stroke-width="0" fill="white">
   <g>
    <path fill="#ff6d6d" stroke="#ff6d6d" d="m65.465,73.88309l21.91,0c1.76,-1.28465 3.69,-2.62069 5.65,-3.97876c4.11,-2.8556 8.4,-5.836 12.81,-9.56517c5.04,-4.26505 5.58,-5.74057 7.11,-9.91753c0.29,-0.78547 0.61,-1.66638 1.03,-2.76017l2.62,-6.76095l0.03,-0.07341c1.4,-3.00976 1.51,-4.99914 0.93,-6.14432c-0.18,-0.35236 -0.41,-0.58727 -0.68,-0.71207c-0.21,-0.10277 -0.49,-0.13948 -0.78,-0.11745c-0.68,0.05139 -1.45,0.36704 -2.15,0.93229l-7.78,13.60265c-0.07,0.12479 -0.17,0.24225 -0.28,0.34502c-0.46,0.60929 -1.08,1.2039 -1.88,1.76915l-13.8,11.29762c-0.75,0.61663 -2.04,0.66802 -2.87,0.11745c-0.84,-0.55057 -0.91,-1.49754 -0.16,-2.10683l13.81,-11.29762c0.06,-0.05139 0.12,-0.10277 0.19,-0.14682c1.43,-0.99836 1.88,-2.07747 1.63,-2.86294c-0.08,-0.24225 -0.22,-0.44779 -0.42,-0.58727c-0.19,-0.12479 -0.44,-0.21289 -0.75,-0.23491l0,0c-1.23,-0.09543 -3.04,0.57259 -5.25,2.48856l0,0c-0.06,0.05139 -0.13,0.10277 -0.2,0.15416l-5.35,3.4649l-0.03,0.02202c-5.79,4.0228 -8.28,4.97712 -12.82,6.71691c-0.95,0.36704 -1.99,0.76345 -3.28,1.27731c-0.51,0.20554 -1.01,0.45513 -1.5,0.72675c-0.52,0.29364 -1.02,0.59461 -1.49,0.88825c-2.4,1.48286 -3.66,2.68676 -4.38,4.01546c-0.75,1.38009 -1.02,3.06115 -1.39,5.36618c-0.15,0.93229 -0.26,1.8499 -0.35,2.76751c-0.07,0.44779 -0.1,0.88091 -0.13,1.31402l0,0zm-4.96,-73.67309c5.46,0 9.87,3.24467 9.87,7.24545c0,4.00812 -4.42,7.24545 -9.87,7.24545s-9.87,-3.24467 -9.87,-7.24545c0,-4.00078 4.42,-7.24545 9.87,-7.24545l0,0zm-10.46,32.89449l7.83,5.82866l-5.77,4.23569l4.63,3.49426l1.57,1.18188c2.7,2.62069 -1.36,5.73323 -4.86,3.56767l-10.28,-7.69324c-1.55,-1.57095 -2.02,-3.3034 -0.42,-5.27075l7.3,-5.35884l0,0.01468l0,0zm20.91,0l-7.83,5.82866l5.77,4.23569l-4.63,3.49426l-1.57,1.18188c-2.7,2.62069 1.36,5.73323 4.86,3.56767l10.27,-7.70058c1.55,-1.57095 2.02,-3.3034 0.42,-5.27075l-7.3,-5.35884l0,0.02202l0.01,0zm13.01,-1.91597c-1.61,0.85888 -3.65,0.45513 -5.03,-0.59461l-7.88,-6.05623l0,5.513l-21.14,0l0,-5.49832l-7.85,6.04889c-1.36,1.04241 -3.42,1.44615 -5.03,0.59461c-1.61,-0.85888 -2.23,-2.67942 -0.81,-3.69246l10.34,-7.37024c1.68,-1.19656 4.92,-4.03748 7.11,-4.03748l13.84,0c2.04,0 5.2,2.8189 6.92,4.03748l10.34,7.37024c1.42,1.0057 0.78,2.82624 -0.81,3.68512l0,0l0,0zm-28.44,42.69457l-21.92,0c-1.76,-1.28465 -3.69,-2.62069 -5.65,-3.97876c-4.11,-2.8556 -8.4,-5.836 -12.81,-9.56517c-5.04,-4.26505 -5.58,-5.74057 -7.11,-9.91753c-0.29,-0.78547 -0.61,-1.66638 -1.03,-2.76017l-2.62,-6.76095l-0.03,-0.07341c-1.4,-3.00976 -1.51,-4.99914 -0.93,-6.14432c0.18,-0.35236 0.41,-0.58727 0.68,-0.71207c0.21,-0.10277 0.49,-0.13948 0.78,-0.11745c0.68,0.05139 1.45,0.36704 2.15,0.93229l7.78,13.60265c0.07,0.12479 0.17,0.24225 0.28,0.34502c0.46,0.60929 1.08,1.2039 1.88,1.76915l13.8,11.29762c0.75,0.61663 2.04,0.66802 2.87,0.11745c0.84,-0.55057 0.91,-1.49754 0.16,-2.10683l-13.79,-11.30496c-0.06,-0.05139 -0.12,-0.10277 -0.19,-0.14682c-1.43,-0.99836 -1.88,-2.07747 -1.63,-2.86294c0.08,-0.24225 0.22,-0.44779 0.42,-0.58727c0.19,-0.12479 0.44,-0.21289 0.75,-0.23491l0,0c1.23,-0.09543 3.05,0.57259 5.25,2.48856l0,0c0.06,0.05139 0.13,0.10277 0.2,0.15416l5.35,3.4649l0.03,0.02202c5.79,4.0228 8.28,4.97712 12.82,6.71691c0.95,0.36704 1.99,0.76345 3.28,1.27731c0.51,0.20554 1.01,0.45513 1.5,0.72675c0.52,0.29364 1.02,0.59461 1.49,0.88825c2.4,1.48286 3.66,2.68676 4.38,4.01546c0.75,1.38009 1.02,3.06115 1.39,5.36618c0.15,0.93229 0.26,1.8499 0.35,2.76751c0.06,0.45513 0.09,0.88825 0.12,1.32136l0,0zm-27.02,0.51386c-0.31,0.26427 -0.5,0.60929 -0.5,0.98368l0,8.91183c0,0.82952 0.92,1.49754 2.04,1.49754l27.58,0c1.13,0 2.04,-0.66802 2.04,-1.49754l0,-8.99992c0,-0.95431 -0.08,-1.98204 -0.17,-2.93635c-0.09,-0.97634 -0.21,-1.94533 -0.36,-2.90699c-0.4,-2.51792 -0.7,-4.36048 -1.66,-6.12964c-0.99,-1.8132 -2.58,-3.37681 -5.53,-5.20468c-0.54,-0.33768 -1.09,-0.67536 -1.67,-0.99102c-0.61,-0.33768 -1.27,-0.66068 -2.01,-0.96166c-1.2,-0.47716 -2.32,-0.91027 -3.34,-1.30668c-4.2,-1.61499 -6.5,-2.4959 -11.91,-6.25443c-0.04,-0.02936 -0.09,-0.05873 -0.13,-0.08075l-5.22,-3.38415c-3.19,-2.73815 -6.31,-3.64842 -8.7,-3.45756l-0.01,0l0,0c-1.17,0.08809 -2.17,0.42577 -2.97,0.93963l-5.27,-9.22015l-0.01,0c-0.08,-0.13214 -0.18,-0.25693 -0.31,-0.37438c-1.46,-1.28465 -3.31,-2.03342 -5.08,-2.16556c-1.21,-0.08809 -2.38,0.10277 -3.4,0.58727c-0.97,0.46248 -1.77,1.18188 -2.27,2.1729c-0.88,1.72511 -0.86,4.40453 0.86,8.11167l2.6,6.71691c0.38,0.969 0.71,1.90129 1.02,2.72347c1.7,4.66146 2.3,6.31316 7.97,11.09941c4.49,3.79524 8.88,6.84904 13.1,9.77805c1.09,0.80016 2.19,1.56361 3.31,2.34908l0,0zm3.9,2.48856c0.27,0.04405 0.55,0.04405 0.83,0l22.34,0l0,5.91675l-23.49,0l0,-5.91675l0.32,0l0,0zm60.08,-2.48856c0.31,0.26427 0.5,0.60929 0.5,0.98368l0,8.91183c0,0.82952 -0.91,1.49754 -2.04,1.49754l-27.57,0c-1.13,0 -2.04,-0.66802 -2.04,-1.49754l0,-8.99992c0,-0.05139 0,-0.11011 0.01,-0.1615c0.03,-0.96166 0.08,-1.89395 0.16,-2.77485c0.09,-0.97634 0.21,-1.94533 0.36,-2.90699c0.4,-2.51792 0.7,-4.36048 1.66,-6.12964c0.99,-1.8132 2.58,-3.37681 5.53,-5.20468c0.54,-0.33768 1.09,-0.67536 1.67,-0.99102c0.61,-0.33768 1.27,-0.66068 2.01,-0.96166c1.2,-0.47716 2.32,-0.91027 3.34,-1.30668c4.2,-1.61499 6.5,-2.4959 11.91,-6.25443c0.04,-0.02936 0.09,-0.05873 0.13,-0.08075l5.22,-3.38415c3.19,-2.73815 6.31,-3.64842 8.7,-3.45756l0.01,0l0,0c1.17,0.08809 2.17,0.42577 2.97,0.93963l5.27,-9.22015l0.01,0c0.08,-0.13214 0.18,-0.25693 0.31,-0.37438c1.46,-1.28465 3.31,-2.03342 5.08,-2.16556c1.21,-0.08809 2.38,0.10277 3.4,0.58727c0.97,0.46248 1.77,1.18188 2.27,2.1729c0.88,1.72511 0.86,4.40453 -0.86,8.11167l-2.6,6.71691c-0.38,0.969 -0.71,1.90129 -1.02,2.72347c-1.7,4.66146 -2.3,6.31316 -7.97,11.09941c-4.49,3.79524 -8.88,6.84904 -13.1,9.77805c-1.1,0.80016 -2.2,1.56361 -3.32,2.34908l0,0zm-3.9,2.48856c-0.27,0.04405 -0.55,0.04405 -0.83,0l-22.34,0l0,5.91675l23.49,0l0,-5.91675l-0.32,0l0,0z"/>
   </g>
  </g>
 </g>
</svg>