<svg width="123" height="85" xmlns="http://www.w3.org/2000/svg">

 <g>
  <title>Layer 1</title>
  <g fill="white">
   <g>
    <path fill="#ff6d6d" stroke="#ff6d6d" d="m95.6756,75.46688l-3.08659,-0.37742l-1.54842,1.89409c-0.01025,0.01398 -0.02051,0.02796 -0.04102,0.03495c-0.64603,0.54516 -1.24079,0.53118 -1.75351,0.24462c-0.55374,-0.30753 -0.9229,-0.96452 -1.15875,-1.39785l-0.09229,-0.16075l-3.27117,-4.20753c-0.10254,-0.1328 -0.03076,-0.29355 0.16407,-0.35645c0.02051,-0.00699 0.04102,-0.01398 0.05127,-0.01398c0.3384,-0.07688 0.71781,-0.23763 1.12799,-0.44731c0.43069,-0.21667 0.88188,-0.48925 1.34333,-0.76882c0.08204,-0.04892 0.18458,-0.07688 0.29738,-0.06989c0.88188,0.01398 1.74326,-0.03495 2.51234,-0.20968c0.75883,-0.17473 1.45613,-0.48226 2.05089,-0.99946c0.13331,-0.11882 0.37941,-0.13979 0.54349,-0.04892c0.04102,0.02796 0.08204,0.05591 0.10254,0.09086l3.78389,4.97635l0.32814,0.48226c0.01025,0.01398 0.02051,0.02796 0.02051,0.04194c0.15382,0.37043 0.18458,0.69194 0,0.93656c-0.20509,0.27258 -0.60501,0.41237 -1.28181,0.37742c-0.02051,-0.00699 -0.06153,-0.01398 -0.09229,-0.02097l0,0zm-64.99272,-7.24786c5.80402,-5.19302 10.75692,-2.83065 17.68893,0.46828c0.34865,0.16774 0.6973,0.3285 1.04595,0.49624c0.99468,0.46828 2.03038,0.38441 3.07634,0.03495c1.12799,-0.38441 2.26623,-1.06936 3.39422,-1.74732l0.02051,-0.00699c1.01519,-0.60807 2.00987,-1.20914 3.07634,-1.67043c0.18458,-0.07688 0.42043,-0.04194 0.53323,0.08387l1.57919,1.6914c0.1128,0.12581 0.06153,0.28656 -0.12305,0.36344c-0.82036,0.35645 -1.71249,0.89463 -2.62514,1.44678l-0.02051,0.01398c-1.57919,0.95054 -3.19939,1.92205 -4.98366,2.42527c-1.8458,0.51721 -3.83517,0.51721 -6.05013,-0.53118l-1.05621,-0.50323c-2.66616,-1.27205 -4.9529,-2.35538 -7.00379,-2.69785c-1.96885,-0.32151 -3.76338,0.0629 -5.57842,1.68441c-0.13331,0.11882 -0.37941,0.13979 -0.54349,0.04892l-2.34827,-1.22312c-0.18458,-0.09086 -0.21534,-0.2586 -0.08204,-0.37742l0,0zm63.75193,-66.43292c-0.67679,0.52419 -1.21003,1.05538 -1.60995,1.57957l0,0c-0.42043,0.55914 -0.70756,1.11828 -0.86137,1.68441c-0.17433,0.62903 -0.20509,1.27205 -0.10254,1.92904c0.10254,0.66398 0.32814,1.34893 0.66654,2.04785l0.68705,1.4328c0.06153,0.13979 -0.04102,0.28656 -0.24611,0.33548c-0.04102,0.00699 -0.08204,0.01398 -0.12305,0.01398l-72.24261,0l0,65.16087c0,0.02097 0,0.03495 -0.01025,0.04892c0.01025,1.14624 0.18458,2.13172 0.55374,2.95646c0.35891,0.81774 0.89214,1.48172 1.6202,1.96398c0.6973,0.46828 1.60995,0.79678 2.73794,0.98549c1.15875,0.18871 2.55336,0.22366 4.18382,0.09785c20.80628,-1.2371 51.34404,-0.01398 73.21679,-0.01398l0,-73.74369c0,-0.01398 0,-0.03495 0.01025,-0.04892l0,-0.00699c0.09229,-1.39086 -0.09229,-2.48818 -0.49221,-3.34786c-0.38967,-0.83871 -1.00494,-1.44678 -1.78427,-1.88011c-0.74857,-0.41237 -1.67148,-0.69893 -2.73794,-0.88065c-1.0357,-0.18871 -2.20471,-0.27957 -3.466,-0.31452l0,0zm-77.83129,9.02314l-14.66387,0c-0.21534,0 -0.38967,-0.11882 -0.38967,-0.26559l0.06153,-1.13925c0.06153,-1.16721 0.26662,-2.2785 0.64603,-3.31291c0.37941,-1.0414 0.93316,-2.00592 1.69198,-2.88656c0.78959,-0.90161 1.77402,-1.70538 3.01481,-2.39033c1.23053,-0.68495 2.69692,-1.24409 4.45043,-1.67742c0.02051,-0.00699 0.04102,-0.00699 0.06153,-0.01398l0.54349,-0.06989c0.01025,0 0.04102,0 0.06153,0l85.31704,0c0.20509,0 0.37941,0.11183 0.38967,0.25161c0.9229,0.11183 1.79453,0.27258 2.61489,0.49624c1.00494,0.26559 1.92784,0.62204 2.74819,1.07635c1.27155,0.70592 2.26623,1.64248 2.91226,2.8656c0.63578,1.19516 0.93316,2.67689 0.82036,4.49409l0,0.02796l0,64.73453l10.99277,0c0.15382,0 0.28712,0.00699 0.39992,0.01398c0.03076,-0.00699 0.06153,-0.00699 0.09229,-0.00699l0.09229,0c0.86137,0 1.4869,-0.00699 2.00987,0.07688c0.57425,0.09086 1.00494,0.27258 1.41511,0.62903c0.62552,0.55215 0.59476,1.00645 0.53323,1.83119l0,0.01398c-0.02051,0.23763 -0.04102,0.53817 -0.04102,1.02043c0,1.96398 -0.50247,3.5156 -1.42537,4.73173c-0.94341,1.22312 -2.30725,2.09678 -4.01975,2.69087c-1.49715,0.51721 -3.24041,0.79678 -5.16824,0.90161c-1.89707,0.09785 -3.98898,0.02796 -6.2142,-0.15376l-75.57531,0c-2.19445,0.16075 -4.12229,0.07688 -5.78351,-0.23065c-1.68173,-0.31452 -3.09684,-0.85968 -4.24534,-1.63549c-1.12799,-0.76183 -1.96885,-1.73334 -2.5226,-2.89355c-0.54349,-1.13226 -0.8101,-2.45323 -0.8101,-3.95592c0,-0.01398 -0.01025,-0.03495 -0.01025,-0.05591l0,-65.16786l0,0zm71.44277,-6.26937c0.15382,-0.54516 0.37941,-1.07635 0.6973,-1.60753c0.2256,-0.3914 0.50247,-0.77581 0.83061,-1.16022l-77.1545,0c-1.16901,0.31452 -2.16369,0.70592 -2.98405,1.1742c-0.84087,0.47527 -1.51766,1.02742 -2.05089,1.64248c-0.46145,0.53118 -0.82036,1.11828 -1.09723,1.74732c-0.23585,0.55215 -0.41018,1.13925 -0.53323,1.7543l82.31249,0c-0.14356,-0.54516 -0.2256,-1.08334 -0.24611,-1.62151c-0.02051,-0.65 0.05127,-1.29301 0.2256,-1.92904l0,0zm18.84768,71.17863l0,6.39517c1.64071,0.11183 3.16863,0.14677 4.53247,0.07688c1.43562,-0.07688 2.68667,-0.26559 3.71211,-0.62204c1.01519,-0.34946 1.82529,-0.90161 2.37903,-1.69839c0.57425,-0.81774 0.88188,-1.90108 0.88188,-3.29893c0,-0.1957 0.01025,-0.40538 0.02051,-0.61505l0.02051,-0.27258c-0.06153,0.02097 -0.13331,0.03495 -0.20509,0.03495l-0.02051,0c-0.08204,0 -0.15382,0.00699 -0.2256,0l-11.09532,0l0,0zm-74.73445,-53.9501c-0.55374,0 -1.04595,-0.15376 -1.40486,-0.39839l0,0c-0.35891,-0.24462 -0.5845,-0.5871 -0.5845,-0.95753c0,-0.37742 0.2256,-0.7129 0.5845,-0.95753l0,0c0.35891,-0.24462 0.86137,-0.39839 1.40486,-0.39839l46.32961,0c0.55374,0 1.04595,0.15376 1.40486,0.39839l0,0c0.35891,0.24462 0.5845,0.5871 0.5845,0.95753c0,0.37742 -0.2256,0.7129 -0.5845,0.95753l0,0c-0.35891,0.24462 -0.86137,0.39839 -1.40486,0.39839l-46.32961,0l0,0zm0,11.18981c-0.55374,0 -1.05621,-0.15376 -1.41511,-0.39839c-0.35891,-0.24462 -0.5845,-0.5871 -0.5845,-0.95753c0,-0.37742 0.2256,-0.7129 0.5845,-0.95753c0.35891,-0.24462 0.86137,-0.39839 1.41511,-0.39839l56.83017,0c0.55374,0 1.05621,0.15376 1.41511,0.39839c0.35891,0.24462 0.5845,0.5871 0.5845,0.95753c0,0.37742 -0.2256,0.7129 -0.5845,0.95753c-0.35891,0.24462 -0.86137,0.39839 -1.41511,0.39839l-56.83017,0l0,0zm0,11.20378c-0.55374,0 -1.04595,-0.15376 -1.40486,-0.39839l0,0c-0.35891,-0.24462 -0.5845,-0.5871 -0.5845,-0.95753c0,-0.37742 0.2256,-0.7129 0.5845,-0.96452c0.35891,-0.24462 0.86137,-0.39839 1.41511,-0.39839l45.41697,0c0.55374,0 1.04595,0.15376 1.40486,0.39839l0,0c0.35891,0.24462 0.5845,0.5871 0.5845,0.95753c0,0.37742 -0.2256,0.7129 -0.5845,0.95753l0,0c-0.35891,0.24462 -0.86137,0.39839 -1.40486,0.39839l-45.42722,0l0,0.00699zm0,11.21077c-0.54349,0 -1.04595,-0.15376 -1.40486,-0.39839c-0.35891,-0.24462 -0.5845,-0.5871 -0.5845,-0.96452c0,-0.37742 0.2256,-0.71989 0.5845,-0.96452c0.35891,-0.24462 0.86137,-0.39839 1.40486,-0.39839l23.5032,0c0.54349,0 1.04595,0.15376 1.40486,0.39839c0.35891,0.24462 0.5845,0.5871 0.5845,0.96452c0,0.37742 -0.2256,0.71989 -0.5845,0.96452c-0.35891,0.24462 -0.86137,0.39839 -1.40486,0.39839l-23.5032,0l0,0zm51.00564,-3.1242c0.36916,-0.01398 0.6973,0.02796 1.00494,0.09785c0.29738,0.06989 0.57425,0.17473 0.86137,0.29355c0.28712,0.12581 0.5845,0.29355 0.90239,0.48226l0.02051,0.01398c0.39992,0.23065 0.84087,0.48925 1.33308,0.67796c0.39992,0.15376 0.99468,0.16774 1.6202,0.18871c1.17926,0.02796 2.46107,0.0629 3.31219,0.92258l0,0c0.72807,0.74785 0.78959,1.31398 0.84087,1.88011l0.01025,0.0629c0.02051,0.27258 0.07178,0.53118 0.21534,0.81075c0.14356,0.28656 0.38967,0.59409 0.79985,0.97151l0,0c0.76908,0.69194 1.23053,1.27903 1.40486,1.81721c0.18458,0.56613 0.06153,1.07635 -0.35891,1.59355l-0.01025,0.01398c-0.31789,0.37043 -0.77934,0.64301 -1.17926,0.87366c-0.29738,0.17473 -0.56399,0.3285 -0.64603,0.4543c-0.21534,0.34247 -0.2256,0.65699 -0.2256,0.98549c-0.01025,0.44731 -0.02051,0.9086 -0.4512,1.4957l-0.01025,0.01398c-0.27687,0.36344 -0.62552,0.67097 -1.04595,0.91559c-0.43069,0.25161 -0.93316,0.44032 -1.5074,0.56613c-0.51272,0.11183 -0.98443,0.09086 -1.44588,0.06989c-0.37941,-0.02097 -0.72807,-0.03495 -0.99468,0.04194l-0.03076,0.00699c-0.55374,0.16075 -1.05621,0.44032 -1.53817,0.69893c-0.53323,0.29355 -1.0357,0.56613 -1.60995,0.69194l0,0c-0.42043,0.09086 -0.84087,0.1328 -1.2613,0.1328c-0.42043,0 -0.84087,-0.04194 -1.2613,-0.1328l-0.02051,-0.00699c-0.56399,-0.11882 -1.06646,-0.39839 -1.59969,-0.69194c-0.48196,-0.26559 -0.99468,-0.54516 -1.55868,-0.70592c-0.26662,-0.07688 -0.61527,-0.05591 -0.99468,-0.04194c-0.4512,0.02097 -0.93316,0.04194 -1.45613,-0.06989l-0.03076,-0.00699c-0.56399,-0.12581 -1.05621,-0.31452 -1.4869,-0.55914c-0.42043,-0.25161 -0.77934,-0.55914 -1.04595,-0.92957c-0.43069,-0.5871 -0.44094,-1.04839 -0.4512,-1.4957c-0.01025,-0.3285 -0.01025,-0.64301 -0.2256,-0.98549l-0.01025,-0.00699c-0.09229,-0.1328 -0.35891,-0.28656 -0.65628,-0.46129c-0.41018,-0.23763 -0.87163,-0.50323 -1.17926,-0.87366l-0.02051,-0.02097c-0.42043,-0.51022 -0.53323,-1.01344 -0.34865,-1.57957c0.17433,-0.53817 0.64603,-1.12527 1.41511,-1.81721c0.42043,-0.37043 0.65628,-0.68495 0.79985,-0.97151c0.14356,-0.27957 0.19483,-0.54516 0.21534,-0.81774l0.01025,-0.05591c0.05127,-0.56613 0.1128,-1.14624 0.84087,-1.88011l0.02051,-0.01398c0.84087,-0.8457 2.11242,-0.87366 3.28142,-0.90161c0.62552,-0.01398 1.23053,-0.03495 1.63046,-0.18871l0.01025,-0.00699c0.48196,-0.18871 0.9229,-0.44032 1.32282,-0.67796c0.31789,-0.18871 0.61527,-0.36344 0.9229,-0.48925c0.27687,-0.12581 0.56399,-0.22366 0.86137,-0.29355c0.31789,-0.0629 0.64603,-0.09785 1.00494,-0.09086l0,0zm4.77857,5.13012c-1.22028,-0.83172 -2.90201,-1.34893 -4.76832,-1.34893c-1.86631,0 -3.54804,0.51721 -4.76832,1.34893c-1.22028,0.83172 -1.97911,1.97796 -1.97911,3.25001c0,1.27205 0.75883,2.41828 1.97911,3.25001c1.22028,0.83172 2.90201,1.34893 4.76832,1.34893c1.86631,0 3.54804,-0.51721 4.76832,-1.34893c1.22028,-0.83172 1.97911,-1.97796 1.97911,-3.25001c-0.01025,-1.26506 -0.75883,-2.41828 -1.97911,-3.25001l0,0zm-14.18191,17.71079l-3.08659,0.37742c-0.03076,0.00699 -0.06153,0.00699 -0.10254,0.00699c-0.67679,0.03495 -1.07672,-0.10484 -1.28181,-0.37742c-0.18458,-0.23763 -0.15382,-0.55914 0,-0.93656l0.02051,-0.04194l0.32814,-0.48226l3.78389,-4.97635c0.02051,-0.03495 0.06153,-0.0629 0.10254,-0.09086c0.17433,-0.09086 0.41018,-0.06989 0.54349,0.04892c0.5845,0.51022 1.28181,0.81774 2.05089,0.99946c0.77934,0.18172 1.63046,0.22366 2.51234,0.20968c0.10254,-0.00699 0.20509,0.01398 0.29738,0.06989c0.46145,0.27957 0.91265,0.55215 1.34333,0.76882c0.41018,0.20968 0.78959,0.37043 1.12799,0.44731l0.05127,0.01398c0.19483,0.06989 0.26662,0.23065 0.16407,0.35645l-3.27117,4.20753l-0.09229,0.16075c-0.23585,0.43333 -0.60501,1.09032 -1.15875,1.39785c-0.51272,0.27957 -1.09723,0.30054 -1.75351,-0.24462c-0.01025,-0.01398 -0.03076,-0.02097 -0.04102,-0.03495l-1.53817,-1.88011l0,0z"/>
   </g>
  </g>
 </g>
</svg>