<svg width="123" height="85" xmlns="http://www.w3.org/2000/svg">

 <g>
  <title>Layer 1</title>
  <g stroke-width="3" fill="white">

   <title stroke="#ff6d6d">dish</title>
   <path stroke="#ff6d6d" stroke-width="3" fill-rule="evenodd" d="m117.30512,3.98077a8.63,7.08707 0 0 1 0,10.04344a8.84,7.25952 0 0 1 -2.38,1.38785a9.24,7.58801 0 0 1 -1.57,0.46809a49.83,40.92105 0 0 1 3.35,4.25388a48.67,39.96844 0 0 1 3.12,5.49392l0,0a47.56,39.05689 0 0 1 1.47,24.06154c-2.43,7.54695 -7.7,15.20887 -16.47,22.41912a2.45,2.01197 0 0 1 -1.76,0.59949l0,0a2.5,2.05303 0 0 1 -1.66,-0.51736l-0.11,-0.07391l-67,-55.02128a2.46,2.02018 0 0 1 -0.74,-1.45355l0,-0.05748a2.53,2.07767 0 0 1 0.73,-1.40427a1,0.82121 0 0 1 0.18,-0.12318c8.79,-7.11171 18.09,-11.42307 27.24,-13.37756a48,39.41823 0 0 1 35.93,3.794a49.25,40.44474 0 0 1 5.18,2.75106a8.94,7.34164 0 0 1 0.57,-1.30573a8.53,7.00495 0 0 1 1.68,-1.94627a8.64,7.09528 0 0 1 12.23,0l0.01,0.00821zm-61.87,35.83774a1.3,1.06758 0 0 1 0.86,-0.39418a1.31,1.07579 0 0 1 1,0.22994a1.28,1.05115 0 0 1 0.48,0.70624a1.31,1.07579 0 0 1 -0.27,0.82121c-2.62,2.70179 3,5.60889 -1.24,9.85456l0,0a1.3,1.06758 0 0 1 -1.83,0.14782l0,0a1.31,1.07579 0 0 1 -0.18,-1.49461c3.23,-3.23558 -2.55,-5.92916 1.22,-9.85456l-0.04,-0.01642zm23.88,37.82507l-0.7,0.56664l36.8,0a0.74,0.6077 0 0 1 0.74,0.6077l0,7.21025a0.74,0.6077 0 0 1 -0.74,0.6077l-114.61,0a0.74,0.6077 0 0 1 -0.74,-0.6077l0,-7.21025a0.74,0.6077 0 0 1 0.74,-0.63233l19.88,0l-0.62,-0.542l-0.23,0a4.5,3.69546 0 0 1 -3.15,-1.29752a5.07,4.16355 0 0 1 -1.22,-2.71822c0,-0.08212 0,-0.17245 0,-0.26279a9.24,7.58801 0 0 1 0.31,-1.53567a5.49,4.50846 0 0 1 2.29,-2.67715a6,4.92728 0 0 1 3.67,-0.70624a8.83,7.25131 0 0 1 1.57,0.2053a36.19,29.7197 0 0 1 6.56,-8.49134a28.3,23.24033 0 0 1 9.36,-5.57604a25.29,20.76848 0 0 1 15.06,-1.42891a26,21.35154 0 0 1 5,1.19897a29.47,24.20115 0 0 1 10,5.55961a37.74,30.99258 0 0 1 7.22,8.68022a6.57,5.39537 0 0 1 3.4,-0.11497a4.47,3.67082 0 0 1 2.65,1.56852a7.07,5.80598 0 0 1 1,4.01573a5.93,4.86979 0 0 1 -2.28,3.35876a1.29,1.05936 0 0 1 -0.35,0.14782a1.25,1.02652 0 0 1 -0.32,0l-1.2,0l-0.09,0.07391zm-5.45,-8.21213l-6.62,-7.91649a26.62,21.86069 0 0 0 -9,-5.01761a24.07,19.7666 0 0 0 -4.45,-1.084a23.36,19.18354 0 0 0 -4.56,-0.32849a22.4,18.39517 0 0 0 -4.52,0.43524a23.16,19.01929 0 0 0 -4.36,1.17433a25.48,20.92451 0 0 0 -8.37,4.92728a33.06,27.1493 0 0 0 -5.95,7.5798l0.27,0.12318l0.54,0.26279a8.18,6.71752 0 0 0 2.62,0.96903a2.84,2.33225 0 0 0 2.58,-0.82121a7.36,6.04413 0 0 1 1.76,-1.13327a4.53,3.7201 0 0 1 2.07,-0.45167a5.47,4.49204 0 0 1 2.26,0.40239a12.7,10.42941 0 0 1 2.63,1.33858a3.79,3.1124 0 0 0 1,0.41882a5,4.10607 0 0 0 1.22,0.18067a4,3.28485 0 0 0 1.1,-0.09033a2.25,1.84773 0 0 0 0.81,-0.31206c0.39,-0.25458 0.79,-0.50094 1.19,-0.72267a11.74,9.64104 0 0 1 1.27,-0.61591a7.36,6.04413 0 0 1 1.41,-0.41882a5.34,4.38528 0 0 1 1.55,-0.13139a5.08,4.17176 0 0 1 4.1,1.77382l0,0.04927a2.34,1.92164 0 0 0 1.9,0.88691a4.23,3.47373 0 0 0 3,-1.23182l0,0a6.28,5.15722 0 0 1 3.16,-1.58494c1.3,-0.18888 3,0.11497 5.4,1.38785a5.3,4.35243 0 0 0 3.71,0.89512a5.23,4.29494 0 0 0 2.24,-0.95261l0.04,0.00821zm-30.87,-29.56367a1.31,1.07579 0 0 1 0.85,-0.41882l0,0a1.27,1.04294 0 0 1 0.93,0.19709a1.29,1.05936 0 0 1 0.52,0.69803l0,0a1.28,1.05115 0 0 1 -0.24,0.76373c-2.54,2.84961 2.23,5.64173 -1.19,9.80528a1.31,1.07579 0 0 1 -0.83,0.44346a1.25,1.02652 0 0 1 -1,-0.15603a1.3,1.06758 0 0 1 -0.35,-1.4864c2.76,-3.35055 -2.4,-5.74849 1.25,-9.85456l0.06,0.00821zm-0.46,18.66617a1.28,1.05115 0 0 1 0.9,-0.3367a1.3,1.06758 0 0 1 1,1.79024l-3.55,3.12882a1.3,1.06758 0 0 1 -1.9,-1.45355l3.55,-3.12882zm12.85,1.45355a1.28,1.05115 0 0 1 -0.35,-0.76373a1.3,1.06758 0 0 1 0.41,-0.7473a1.33,1.09221 0 0 1 0.93,-0.27921a1.3,1.06758 0 0 1 0.91,0.3367l3.54,3.12882a1.32,1.084 0 0 1 0.35,0.76373a1.3,1.06758 0 0 1 -1.34,0.97724a1.3,1.06758 0 0 1 -0.91,-0.3367l-3.54,-3.12882l0,0.04927zm-6.9,0l0,0a1.25,1.02652 0 0 1 0.38,-0.71446a1.28,1.05115 0 0 1 0.92,-0.30385l0,0a1.25,1.02652 0 0 1 0.87,0.31206a1.28,1.05115 0 0 1 0.37,0.75552l0,3.70367a1.3,1.06758 0 0 1 -1.3,1.02652l0,0a1.3,1.06758 0 0 1 -1.25,-1.06758l0,-3.67903l0.01,-0.03285zm27,11.28347a7.68,6.30692 0 0 1 -3.49,1.42891c-1.43,0.18067 -3.18,-0.09855 -5.52,-1.30573c-3.13,-1.64243 -4.12,-0.88691 -5.21,-0.05748l0,0a10,8.21213 0 0 1 -1.91,1.23182a5.83,4.78767 0 0 1 -2.92,0.59127a4.56,3.74473 0 0 1 -2.52,-0.53379a6.39,5.24755 0 0 1 -1.48,-1.1497l0,0a4.49,3.68725 0 0 0 -0.83,-0.65697a2.48,2.03661 0 0 0 -1.31,-0.3367a2.8,2.2994 0 0 0 -0.81,0.07391a4.26,3.49837 0 0 0 -0.85,0.271a8.38,6.88177 0 0 0 -1,0.4763c-0.33,0.18888 -0.67,0.39418 -1,0.61591a5,4.10607 0 0 1 -1.68,0.68982a6.85,5.62531 0 0 1 -2,0.18888a7.36,6.04413 0 0 1 -2,-0.31206a6.1,5.0094 0 0 1 -1.89,-0.80479a10.25,8.41743 0 0 0 -1.88,-0.99367a3.06,2.51291 0 0 0 -1.3,-0.27921a1.87,1.53567 0 0 0 -0.91,0.23815a5.09,4.17997 0 0 0 -1,0.67339a7.76,6.37261 0 0 1 -1.7,1.11685a4.77,3.91719 0 0 1 -1.62,0.48452a5.32,4.36885 0 0 1 -3,-0.23815a18.37,15.08568 0 0 1 -2.72,-1.14149a7.92,6.50401 0 0 0 -3.38,-0.9444a3.65,2.99743 0 0 0 -1.71,0.21352a2.68,2.20085 0 0 0 -1.21,0.91155a5,4.10607 0 0 0 -0.57,1.76561a2.14,1.7574 0 0 0 2.08,2.02018l59.83,0a4,3.28485 0 0 0 1,-1.97091a4.28,3.51479 0 0 0 -0.58,-2.27476a2.17,1.78203 0 0 0 -1.83,-0.77194a6.55,5.37895 0 0 0 -3.08,0.75552l0,0.02464zm-26.26,-31.4114a1.29,1.05936 0 0 1 0.85,-0.42703a1.28,1.05115 0 0 1 1.48,0.88691a1.25,1.02652 0 0 1 -0.23,0.82121c-2.86,3.21094 2.74,5.53498 -1.26,9.82992a1.29,1.05936 0 0 1 -0.86,0.40239a1.26,1.03473 0 0 1 -1,-0.2053a1.35,1.10864 0 0 1 -0.5,-0.70624a1.31,1.07579 0 0 1 0.26,-0.82121c3,-3.23558 -2.66,-5.44464 1.2,-9.85456l0.06,0.07391zm-9.55,-24.1683l63.39,52.04027c7.22,-6.35619 11.56,-13.02444 13.56,-19.55308a42.67,35.04116 0 0 0 -1.45,-21.11339l0,0a44.11,36.22371 0 0 0 -4.24,-6.8407a45.87,37.66904 0 0 0 -6,-6.04413a44.76,36.7575 0 0 0 -15.74,-8.43386a42.67,35.04116 0 0 0 -25.71,-1.19076c-8,1.64243 -16.07,5.20649 -23.81,11.13565zm17.93,1.64243a2.55,2.09409 0 0 1 -1.87,0.13139a2.51,2.06124 0 0 1 -1.67,-2.5704a2.54,2.08588 0 0 1 1.22,-1.2154a38.4,31.53458 0 0 1 8,-2.5704a33,27.10003 0 0 1 8.08,-0.88691a34.28,28.15118 0 0 1 8,0.72267a42,34.49095 0 0 1 8,2.2337a2.5,2.05303 0 0 1 1.25,2.71822l0,0a2.5,2.05303 0 0 1 -1.37,1.04294a2.56,2.10231 0 0 1 -1.92,-0.04927l0,0a36.66,30.10567 0 0 0 -7,-1.95449a29.22,23.99585 0 0 0 -6.93,-0.63233a28.19,23.15 0 0 0 -6.89,0.75552a32.51,26.69764 0 0 0 -6.93,2.2337l0,0l0.03,0.04106z" class="cls-1"/>
  </g>
 </g>
</svg>