<svg width="978" height="148" viewBox="0 0 978 148" fill="none" xmlns="http://www.w3.org/2000/svg">
<path d="M159.5 74C159.5 114.557 123.944 147.5 80 147.5C36.0559 147.5 0.5 114.557 0.5 74C0.5 33.4431 36.0559 0.5 80 0.5C123.944 0.5 159.5 33.4431 159.5 74Z" stroke="#727272"/>
<path d="M977.5 74C977.5 114.557 941.944 147.5 898 147.5C854.056 147.5 818.5 114.557 818.5 74C818.5 33.4431 854.056 0.5 898 0.5C941.944 0.5 977.5 33.4431 977.5 74Z" stroke="#727272"/>
<line x1="160" y1="73.5" x2="818" y2="73.5" stroke="#727272"/>
<path d="M880.619 44.0743C882.272 42.4206 884.939 42.4206 886.592 44.0743L914.639 72.1206C915.955 73.4368 915.955 75.5631 914.639 76.8793L886.592 104.926C884.939 106.579 882.272 106.579 880.619 104.926C878.965 103.272 878.965 100.606 880.619 98.9518L905.054 74.4831L880.585 50.0143C878.965 48.3943 878.965 45.6943 880.619 44.0743Z" fill="black"/>
<path d="M90.3813 104.926C88.7276 106.579 86.0613 106.579 84.4076 104.926L56.3613 76.8793C55.0451 75.5631 55.0451 73.4368 56.3613 72.1206L84.4076 44.0743C86.0613 42.4206 88.7276 42.4206 90.3813 44.0743C92.0351 45.7281 92.0351 48.3943 90.3813 50.0481L65.9463 74.5168L90.4151 98.9856C92.0351 100.606 92.0351 103.306 90.3813 104.926Z" fill="black"/>
</svg>
