<svg width="123" height="85" xmlns="http://www.w3.org/2000/svg">

 <g>
  <title>Layer 1</title>
  <g stroke-width="0" stroke="#000" fill="#ff6d6d">

   <title stroke="#ff6d6d">tablets</title>
   <path stroke="#ff6d6d" fill-rule="evenodd" d="m31.32855,8.54893a17.17,17.17 0 0 1 23.39,-6.27l0,0a17.18,17.18 0 0 1 6.3,23.39c-9.76,16.86 -19.47,33.56 -29.21,50.42l0,0a17,17 0 0 1 -29.51,-17.09l0,0c9.72,-16.84 19.28,-33.57 29.03,-50.45zm60.26,67.66a17.18,17.18 0 0 1 -23.4,6.27l0,0a17.19,17.19 0 0 1 -6.27,-23.4c9.73,-16.86 19.45,-33.55 29.19,-50.41l0,0a17,17 0 0 1 29.51,17l0,0c-9.72,16.87 -19.28,33.6 -29,50.49l-0.03,0.05zm-11.9,-42.41l24.79,14.31l13.45,-23.3l0,0a14.31,14.31 0 0 0 -24.79,-14.32l0,0l-13.45,23.31zm-36.46,17.2l-24.79,-14.36l-13.42,23.36l0,0a14.31,14.31 0 0 0 24.76,14.27l0,0l13.45,-23.27z" class="cls-1"/>
  </g>
 </g>
</svg>