<svg width="123" height="85" xmlns="http://www.w3.org/2000/svg">

 <g>
  <title>Layer 1</title>
  <g stroke-width="3" fill="white">
   <g>
    <path stroke="#ff6d6d" fill="#f7f4f4" clip-rule="evenodd" fill-rule="evenodd" d="m1.05985,46.89144l25.39167,0l-1.02162,31.33144l-24.37005,0l0,-31.33144l0,0zm79.78537,-40.43177c3.39217,11.05192 13.54883,16.57434 13.54883,22.09676c0,5.52949 -3.38225,11.05192 -13.54883,11.05192c-10.16658,0 -13.54883,-5.52242 -13.54883,-11.05192c0,-5.52242 10.16658,-11.04484 13.54883,-22.09676l0,0zm23.51705,-5.70627c1.81511,5.9184 7.26043,8.87406 7.26043,11.83679c0,2.96273 -1.81511,5.9184 -7.26043,5.9184c-5.44532,0 -7.26043,-2.95566 -7.26043,-5.9184c0,-2.96273 5.44532,-5.9184 7.26043,-11.83679l0,0zm-78.63481,21.42502c2.62843,-0.35355 5.14776,0.8768 5.64369,2.7506c0.49593,1.87381 -1.22991,3.66983 -3.85834,4.02338c-2.62843,0.35355 -5.14776,-0.8768 -5.64369,-2.7506c-0.48601,-1.86673 1.23983,-3.66983 3.85834,-4.02338l0,0zm22.32681,-12.6641c4.64191,-0.62224 9.11521,1.55561 9.98805,4.86482c0.87284,3.30921 -2.1821,6.49822 -6.82401,7.12046c-4.64191,0.62224 -9.11521,-1.55561 -9.98805,-4.86482c-0.87284,-3.30921 2.1821,-6.49114 6.82401,-7.12046l0,0zm-17.59563,66.17715l0.853,-26.007l16.4054,0.27577c6.9232,1.00408 13.7968,3.81125 20.65057,7.04975l12.74543,0.21213c5.76272,0.34648 8.64904,4.56077 2.95575,7.20531c-4.54273,2.26271 -10.43439,2.02937 -16.46491,1.54147c-4.16582,-0.21213 -4.4733,3.77589 -0.12894,3.86075c1.50763,0.10606 3.15412,-0.11314 4.59232,-0.09192c7.54807,0.12021 13.78688,-0.80609 17.73449,-4.9921l2.01348,-3.14658l19.17269,-6.38508c9.56155,-2.07179 16.06816,5.11938 8.91684,9.92056c-13.96542,6.89419 -28.23831,12.52268 -42.79884,17.01981c-10.61292,4.36278 -21.06715,4.03752 -31.38251,-0.52325l-15.26476,-5.93961l0,0z" class="st0"/>
   </g>
  </g>
 </g>
</svg>