<svg width="123" height="85" xmlns="http://www.w3.org/2000/svg">

 <g>
  <title>Layer 1</title>
  <g stroke-width="0">
   <g>
    <title>Layer 1</title>
    <g fill="white">
     <path d="m109.526,61.88496c0.182,0 0.359,0.01312 0.533,0.03661c1.146,-1.38012 2.191,-2.82863 3.135,-4.34207c0.018,-0.03039 0.037,-0.0594 0.059,-0.08842c1.418,-2.31057 2.488,-4.71024 3.209,-7.19695c0.559,-1.92927 0.904,-3.90759 1.035,-5.93426l-16.893,0c-0.307,5.92251 -2.867,11.76352 -7.639,17.52509l16.561,0l0,0zm-2.945,3.72039l-17.014,0c-5.164,5.16752 -12.121,10.27149 -20.838,15.31191c1.367,-0.11743 2.719,-0.26801 4.055,-0.45244c3.646,-0.50356 7.164,-1.2551 10.549,-2.25462l-0.002,-0.00276c3.441,-1.02231 6.646,-2.2187 9.609,-3.59122c2.969,-1.37598 5.721,-2.93915 8.25,-4.69366l0.01,-0.00691l0,0c1.957,-1.34628 3.75,-2.78373 5.381,-4.3103l0,0zm-52.31,15.31122c-8.716,-5.03973 -15.673,-10.1437 -20.838,-15.31122l-17.011,0c1.631,1.52656 3.423,2.96402 5.379,4.3103l0.01,0.0076l0,-0.00069c2.53,1.75451 5.282,3.31769 8.25,4.69366c2.962,1.37253 6.167,2.56891 9.609,3.59122c0.043,0.01312 0.086,0.02625 0.128,0.04075c3.345,0.98018 6.819,1.71859 10.42,2.21663c1.336,0.18443 2.686,0.33502 4.053,0.45175l0,0zm-41.358,-19.03162l17.122,0c-4.771,-5.76157 -7.332,-11.60257 -7.637,-17.52509l-16.892,0c0.13,2.02667 0.475,4.00429 1.034,5.93357c0.729,2.51848 1.818,4.94855 3.264,7.28675l0.004,-0.00069c0.935,1.50031 1.969,2.93639 3.105,4.30546l0,0zm-7.407,-21.24479l16.997,0c0.625,-5.80232 3.412,-11.64402 8.407,-17.52509l-17.997,0c-1.136,1.36907 -2.17,2.80515 -3.105,4.30615c-0.019,0.0297 -0.039,0.0594 -0.059,0.08773c-1.419,2.31126 -2.488,4.71093 -3.209,7.19764c-0.559,1.92927 -0.904,3.90759 -1.034,5.93357l0,0zm10.916,-21.24479l17.938,0c5.108,-5.08463 11.862,-10.19896 20.29,-15.343c-1.496,0.12088 -2.973,0.28183 -4.431,0.48353c-3.647,0.50356 -7.164,1.25579 -10.549,2.25462l0.001,0.00207c-3.442,1.023 -6.647,2.2187 -9.609,3.59191c-2.968,1.37598 -5.72,2.93915 -8.25,4.69297l-0.011,0.00691l0,0c-1.956,1.34697 -3.748,2.78373 -5.379,4.31099l0,0zm51.928,-15.34369c8.428,5.14404 15.182,10.25837 20.291,15.343l17.939,0c-1.631,-1.52656 -3.424,-2.96402 -5.381,-4.3103l-0.01,-0.00691l0,0c-2.529,-1.75451 -5.281,-3.31699 -8.25,-4.69297c-2.963,-1.37322 -6.168,-2.56891 -9.609,-3.59191c-0.043,-0.01243 -0.086,-0.02625 -0.127,-0.04075c-3.346,-0.97949 -6.82,-1.71859 -10.42,-2.21593c-1.458,-0.2017 -2.937,-0.36265 -4.433,-0.48422l0,0l0,-0.00001zm41.738,19.06339l-17.998,0c4.996,5.88107 7.783,11.72276 8.408,17.52509l16.998,0c-0.131,-2.02667 -0.477,-4.00429 -1.035,-5.93357c-0.73,-2.51848 -1.818,-4.94855 -3.264,-7.28675l-0.004,0.00138c-0.935,-1.50101 -1.968,-2.93708 -3.105,-4.30615l0,0zm-60.921,-22.22704c3.992,-0.55191 8.104,-0.82752 12.334,-0.82752c4.23,0 8.341,0.27561 12.333,0.82752c3.934,0.54431 7.758,1.36078 11.473,2.4501c0.051,0.01243 0.1,0.02556 0.148,0.04006c3.703,1.10106 7.197,2.40727 10.471,3.92624c3.268,1.51413 6.291,3.23065 9.066,5.1544c2.785,1.91684 5.27,4.00567 7.461,6.26167c2.197,2.26222 4.09,4.67501 5.684,7.23425l-0.004,0.00069l0.004,0.00622c1.607,2.59585 2.809,5.26906 3.605,8.01895c0.799,2.75748 1.197,5.59786 1.197,8.51974c0,2.92188 -0.398,5.76295 -1.197,8.52043c-0.787,2.71604 -1.971,5.35886 -3.547,7.92431c-0.018,0.03454 -0.037,0.06838 -0.059,0.10154c-1.594,2.55924 -3.486,4.97135 -5.684,7.23356c-2.191,2.25669 -4.676,4.34483 -7.461,6.26167c-2.775,1.92375 -5.799,3.64096 -9.066,5.1544c-3.273,1.51827 -6.768,2.82587 -10.471,3.92624l-0.002,-0.00276l-0.01,0.00276c-3.758,1.10935 -7.629,1.93963 -11.609,2.48947c-3.992,0.55191 -8.104,0.82752 -12.333,0.82752c-4.229,0 -8.342,-0.27561 -12.334,-0.82752c-3.933,-0.54362 -7.758,-1.36078 -11.474,-2.44941c-0.049,-0.01312 -0.098,-0.02556 -0.147,-0.04075c-3.705,-1.10037 -7.197,-2.40727 -10.472,-3.92624c-3.266,-1.51344 -6.29,-3.23065 -9.065,-5.1544c-2.785,-1.91684 -5.27,-4.00567 -7.461,-6.26167c-2.198,-2.26152 -4.09,-4.67432 -5.684,-7.23356l0.004,-0.00138l-0.004,-0.00622c-1.606,-2.59585 -2.808,-5.26906 -3.604,-8.01895c-0.798,-2.75679 -1.198,-5.59717 -1.198,-8.51974c0,-2.92119 0.4,-5.76226 1.199,-8.51974c0.787,-2.71673 1.97,-5.35886 3.546,-7.92501c0.018,-0.03385 0.037,-0.06838 0.058,-0.10154c1.594,-2.55924 3.485,-4.97204 5.684,-7.23425c2.192,-2.256 4.677,-4.34483 7.461,-6.26167c2.775,-1.92375 5.799,-3.64027 9.065,-5.1544c3.275,-1.51827 6.768,-2.82518 10.472,-3.92624l0.001,0.00276l0.009,-0.00276c3.759,-1.10797 7.63,-1.93825 11.611,-2.48878l0,0l0,0.00001zm15.027,5.57437l0,12.93296l17.826,0c-4.684,-4.26609 -10.619,-8.57639 -17.826,-12.93296l0,0zm0,16.65267l0,17.52509l30.922,0c-0.699,-5.75535 -3.789,-11.59636 -9.318,-17.52509l-21.604,0l0,0zm0,21.24479l0,17.52509l22.51,0c5.328,-5.79956 8.189,-11.64195 8.531,-17.52509l-31.041,0l0,0zm0,21.24548l0,13.09114c7.645,-4.34 13.902,-8.70417 18.746,-13.09114l-18.746,0l0,0zm-5.386,13.09253l0,-13.09253l-18.747,0c4.843,4.38697 11.1,8.75184 18.747,13.09253l0,0zm0,-16.81292l0,-17.52509l-31.041,0c0.341,5.88383 3.201,11.72553 8.531,17.52509l22.51,0l0,0zm0,-21.24479l0,-17.52509l-21.604,0c-5.529,5.92873 -8.619,11.77043 -9.319,17.52509l30.923,0l0,0zm0,-21.24479l0,-12.93434c-7.207,4.35658 -13.143,8.66826 -17.827,12.93434l17.827,0l0,0z" stroke="#ff6d6d" fill="#ff6d6d"/>
    </g>
   </g>
  </g>
 </g>
</svg>